name processed_emg_signals						
nRows=129						
nColumns=7						
 						
endheader						
time	LGLTMED	LRF	LADDLONG	LST	LTA	LGM
2.94	0.032150337	0.029896259	0.037435648	0.372022545	0.555242905	0.055047276
2.941	0.032066862	0.029584151	0.037286505	0.375924253	0.551580789	0.05492933
2.942	0.03198571	0.029284213	0.037145468	0.379780333	0.547823959	0.054836099
2.943	0.031907183	0.028997451	0.037012858	0.383588839	0.543973832	0.054768776
2.944	0.031831597	0.028724891	0.036888999	0.387347864	0.540031921	0.054728562
2.945	0.031759272	0.028467573	0.036774216	0.391055543	0.535999833	0.054716666
2.946	0.03169054	0.028226555	0.036668838	0.394710059	0.531879272	0.0547343
2.947	0.031625739	0.028002907	0.036573192	0.39830964	0.527672034	0.054782679
2.948	0.031565216	0.027797716	0.03648761	0.401852561	0.523380008	0.05486302
2.949	0.031509324	0.027612078	0.036412423	0.405337149	0.519005172	0.054976541
2.95	0.031458424	0.0274471	0.036347961	0.40876178	0.514549593	0.055124454
2.951	0.031412884	0.0273039	0.036294557	0.41212488	0.510015424	0.05530797
2.952	0.031373079	0.027183601	0.036252541	0.41542493	0.505404905	0.055528294
2.953	0.031339389	0.027087335	0.036222244	0.418660462	0.500720359	0.055786621
2.954	0.031312199	0.027016237	0.036203994	0.421830061	0.495964189	0.056084138
2.955	0.031291901	0.026971445	0.036198118	0.424932366	0.491138879	0.056422023
2.956	0.03127889	0.0269541	0.036204941	0.427966067	0.486246991	0.056801436
2.957	0.031273565	0.026965341	0.036224784	0.43092991	0.481291159	0.057223526
2.958	0.031276332	0.027006306	0.036257966	0.43382269	0.476274095	0.057689423
2.959	0.031287595	0.02707813	0.036304802	0.436643255	0.471198579	0.058200241
2.96	0.031307767	0.027181941	0.036365602	0.439390503	0.466067459	0.05875707
2.961	0.031337257	0.02731886	0.036440672	0.442063383	0.460883651	0.05936098
2.962	0.03137648	0.027490002	0.036530312	0.44466089	0.455650134	0.060013018
2.963	0.031425851	0.027696466	0.036634817	0.447182066	0.450369948	0.060714203
2.964	0.031485785	0.027939342	0.036754475	0.449626	0.445046189	0.061465527
2.965	0.031556699	0.028219703	0.036889567	0.451991823	0.439682013	0.062267953
2.966	0.031639005	0.028538608	0.037040367	0.454278709	0.434280627	0.063122414
2.967	0.03173312	0.028897095	0.037207139	0.456485872	0.428845286	0.064029808
2.968	0.031839454	0.029296182	0.037390142	0.458612565	0.423379296	0.064991001
2.969	0.031958418	0.029736865	0.037589622	0.460658078	0.417886006	0.066006821
2.97	0.032090418	0.030220116	0.037805817	0.462621735	0.412368808	0.067078059
2.971	0.032235858	0.030746881	0.038038954	0.464502894	0.40683113	0.068205467
2.972	0.032395136	0.031318075	0.038289249	0.466300947	0.401276439	0.069389755
2.973	0.032568647	0.031934586	0.038556908	0.468015311	0.395708236	0.07063159
2.974	0.032756779	0.032597269	0.038842122	0.469645437	0.390130049	0.071931598
2.975	0.032959914	0.033306944	0.03914507	0.471190799	0.384545435	0.073290355
2.976	0.033178429	0.034064396	0.03946592	0.472650897	0.378957977	0.074708393
2.977	0.033412692	0.034870372	0.039804823	0.474025258	0.373371276	0.076186196
2.978	0.033663062	0.035725578	0.040161917	0.475313428	0.367788954	0.077724195
2.979	0.033929891	0.036630681	0.040537325	0.476514976	0.362214647	0.079322772
2.98	0.034213522	0.037586303	0.040931153	0.47762949	0.356652002	0.080982256
2.981	0.034514285	0.038593021	0.041343492	0.478656581	0.351104676	0.082702924
2.982	0.034832503	0.039651367	0.041774417	0.479595874	0.345576329	0.084484995
2.983	0.035168486	0.040761821	0.042223983	0.480447014	0.340070626	0.086328634
2.984	0.035522531	0.041924817	0.042692229	0.481209661	0.334591225	0.088233949
2.985	0.035894924	0.043140733	0.043179176	0.481883495	0.329141783	0.090200989
2.986	0.036285938	0.044409898	0.043684826	0.482468207	0.323725943	0.092229744
2.987	0.03669583	0.045732582	0.04420916	0.482963507	0.318347338	0.094320144
2.988	0.037124846	0.047109002	0.044752142	0.483369118	0.31300958	0.096472059
2.989	0.037573215	0.048539315	0.045313713	0.483684779	0.30771626	0.098685297
2.99	0.03804115	0.05002362	0.045893796	0.483910244	0.302470943	0.100959604
2.991	0.038528849	0.051561954	0.046492291	0.484045283	0.297277164	0.103294661
2.992	0.039036493	0.053154295	0.047109077	0.484089679	0.292138421	0.105690089
2.993	0.039564247	0.054800556	0.047744012	0.484043234	0.287058174	0.108145442
2.994	0.040112256	0.056500587	0.048396933	0.483905763	0.282039837	0.110660211
2.995	0.040680649	0.058254171	0.049067651	0.4836771	0.277086776	0.113233822
2.996	0.041269536	0.060061029	0.049755959	0.483357098	0.272202306	0.115865635
2.997	0.041879008	0.061920811	0.050461623	0.482945625	0.26738968	0.118554946
2.998	0.042509135	0.063833102	0.05118439	0.482442572	0.262652092	0.121300986
2.999	0.04315997	0.065797417	0.05192398	0.481847849	0.257992668	0.124102918
3	0.043831543	0.067813203	0.052680093	0.481161388	0.253414463	0.126959842
3.001	0.044523866	0.069879837	0.053452404	0.480383147	0.248920456	0.129870793
3.002	0.045236929	0.071996627	0.054240565	0.479513105	0.244513548	0.132834739
3.003	0.0459707	0.07416281	0.055044205	0.478551269	0.240196554	0.135850584
3.004	0.046725127	0.076377551	0.055862929	0.477497674	0.235972204	0.13891717
3.005	0.047500136	0.078639948	0.056696319	0.476352385	0.231843133	0.142033273
3.006	0.048295632	0.080949024	0.057543935	0.475115497	0.227811884	0.145197606
3.007	0.049111496	0.083303735	0.058405312	0.473787139	0.223880898	0.148408821
3.008	0.049947588	0.085702965	0.059279964	0.472367474	0.220052516	0.151665507
3.009	0.050803748	0.088145527	0.060167381	0.470856702	0.21632897	0.154966194
3.01	0.05167979	0.090630167	0.061067033	0.469255061	0.212712385	0.15830935
3.011	0.052575507	0.093155559	0.061978366	0.46756283	0.209204774	0.161693387
3.012	0.053490671	0.09572031	0.062900805	0.46578033	0.205808034	0.165116659
3.013	0.054425031	0.098322958	0.063833755	0.463907924	0.202523946	0.168577463
3.014	0.055378313	0.100961976	0.064776599	0.461946023	0.199354167	0.172074042
3.015	0.056350222	0.103635769	0.0657287	0.459895084	0.196300236	0.175604587
3.016	0.05734044	0.106342679	0.066689403	0.457755614	0.193363564	0.179167236
3.017	0.058348628	0.109080982	0.067658033	0.45552817	0.190545438	0.182760077
3.018	0.059374424	0.111848894	0.068633896	0.453213361	0.187847013	0.18638115
3.019	0.060417447	0.114644568	0.069616282	0.450811851	0.185269317	0.190028451
3.02	0.061477292	0.117466099	0.070604463	0.448324357	0.182813246	0.193699927
3.021	0.062553537	0.120311523	0.071597694	0.445751653	0.180479562	0.197393486
3.022	0.063645735	0.123178823	0.072595218	0.443094571	0.178268894	0.201106995
3.023	0.064753424	0.126065925	0.07359626	0.440354003	0.176181738	0.204838279
3.024	0.065876117	0.128970704	0.074600033	0.437530897	0.174218453	0.208585131
3.025	0.067013311	0.131890987	0.075605738	0.434626263	0.172379265	0.212345308
3.026	0.068164486	0.134824549	0.076612563	0.431641173	0.170664261	0.216116534
3.027	0.069329099	0.137769126	0.077619686	0.42857676	0.169073395	0.219896505
3.028	0.070506593	0.140722407	0.078626276	0.425434218	0.167606486	0.223682888
3.029	0.071696394	0.143682043	0.079631492	0.422214804	0.166263217	0.227473326
3.03	0.072897909	0.146645646	0.080634486	0.418919841	0.165043137	0.23126544
3.031	0.074110532	0.149610797	0.081634405	0.415550709	0.163945662	0.23505683
3.032	0.07533364	0.152575042	0.082630389	0.412108856	0.162970076	0.238845079
3.033	0.076566596	0.155535901	0.083621575	0.40859579	0.162115531	0.242627755
3.034	0.07780875	0.158490868	0.084607098	0.405013083	0.16138105	0.246402415
3.035	0.079059439	0.161437415	0.08558609	0.401362369	0.160765529	0.250166605
3.036	0.080317988	0.164372994	0.086557682	0.397645343	0.160267737	0.253917866
3.037	0.081583708	0.167295045	0.087521009	0.393863762	0.159886318	0.257653733
3.038	0.082855902	0.170200994	0.088475206	0.390019443	0.159619795	0.261371742
3.039	0.084133864	0.173088258	0.089419412	0.386114262	0.159466572	0.265069429
3.04	0.085416875	0.175954252	0.09035277	0.382150156	0.159424935	0.268744338
3.041	0.086704212	0.178796387	0.09127443	0.378129116	0.159493057	0.272394015
3.042	0.087995142	0.18161208	0.092183551	0.374053192	0.159668997	0.276016022
3.043	0.089288927	0.184398751	0.093079297	0.369924487	0.159950708	0.279607931
3.044	0.090584822	0.187153834	0.093960846	0.365745159	0.160336037	0.28316733
3.045	0.091882079	0.189874774	0.094827384	0.361517417	0.160822729	0.286691829
3.046	0.093179943	0.192559037	0.095678111	0.357243521	0.16140843	0.290179057
3.047	0.09447766	0.195204107	0.096512242	0.352925778	0.162090692	0.293626669
3.048	0.095774469	0.197807498	0.097329005	0.348566542	0.162866975	0.297032349
3.049	0.097069613	0.20036675	0.098127645	0.344168213	0.163734652	0.300393812
3.05	0.098362329	0.202879437	0.098907426	0.339733231	0.164691013	0.303708804
3.051	0.099651858	0.205343171	0.099667627	0.33526408	0.165733268	0.306975111
3.052	0.100937442	0.207755605	0.100407552	0.330763277	0.166858552	0.310190557
3.053	0.102218321	0.210114435	0.101126521	0.326233381	0.168063929	0.313353011
3.054	0.103493743	0.212417407	0.101823879	0.321676979	0.169346396	0.316460386
3.055	0.104762957	0.214662315	0.102498994	0.317096693	0.170702888	0.319510644
3.056	0.106025215	0.216847014	0.103151256	0.312495173	0.172130282	0.322501798
3.057	0.107279777	0.218969411	0.103780083	0.307875095	0.173625403	0.325431918
3.058	0.108525907	0.221027481	0.104384917	0.30323916	0.175185025	0.328299129
3.059	0.109762877	0.223019261	0.104965227	0.298590088	0.176805879	0.331101618
3.06	0.110989964	0.224942857	0.105520512	0.293930621	0.178484657	0.333837634
3.061	0.112206456	0.226796447	0.106050297	0.289263516	0.180218015	0.336505493
3.062	0.113411647	0.228578283	0.106554137	0.284591543	0.182002579	0.33910358
3.063	0.114604843	0.230286695	0.107031619	0.279917485	0.183834951	0.341630348
3.064	0.115785357	0.231920094	0.107482357	0.275244131	0.185711712	0.344084328
3.065	0.116952516	0.233476971	0.107906001	0.270574278	0.187629426	0.346464124
3.066	0.118105656	0.234955906	0.10830223	0.265910726	0.189584647	0.348768421
3.067	0.119244126	0.236355563	0.108670755	0.261256273	0.191573924	0.350995984
3.068	0.120367287	0.2376747	0.109011322	0.256613718	0.193593803	0.353145659
